<?xml version="1.0" encoding="iso-8859-1"?>
<!-- Generator: Adobe Illustrator 19.0.0, SVG Export Plug-In . SVG Version: 6.00 Build 0)  -->
<svg version="1.1" id="Layer_1" xmlns="http://www.w3.org/2000/svg" xmlns:xlink="http://www.w3.org/1999/xlink" x="0px" y="0px"
	 viewBox="0 0 512 512" style="enable-background:new 0 0 512 512;" xml:space="preserve">
<path style="fill:#D7DEED;" d="M40.009,209.341L8.67,368.107c-0.437,2.603-0.664,5.277-0.664,8.002
	c0,26.513,21.493,48.006,48.006,48.006c17.769,0,33.284-9.655,41.584-24.004l70.428-120.012h175.953l70.428,120.012
	c8.3,14.35,23.814,24.004,41.584,24.004c26.513,0,48.006-21.493,48.006-48.006c0-2.727-0.227-5.401-0.664-8.002l-31.339-158.766
	l-7.674-49.256H46.031L40.009,209.341z"/>
<g>
	<circle style="fill:#E4EAF6;" cx="120.082" cy="199.957" r="79.054"/>
	<circle style="fill:#E4EAF6;" cx="391.267" cy="199.957" r="79.054"/>
</g>
<path style="fill:#82B9FF;" d="M240.032,160.085v-24.195c0-8.837,7.164-16.002,16.002-16.002l0,0
	c8.837,0,16.002,7.164,16.002,16.002v24.195H240.032z"/>
<path d="M511.225,366.782c-0.013-0.075-0.026-0.15-0.041-0.226L479.845,207.79c-0.024-0.122-0.061-0.24-0.09-0.36
	c0.201-2.421,0.309-4.868,0.309-7.34c0-48.531-39.483-88.014-88.015-88.014c-30.831,0-58.006,15.938-73.73,40.004H280.04v-16.189
	c0-10.431-6.689-19.326-16.002-22.629V87.885c0-4.421-3.584-8.005-8.005-8.005c-4.422,0-8.005,3.584-8.005,8.005v25.375
	c-9.312,3.304-16.002,12.198-16.002,22.629v16.189h-38.231c-6.175-9.487-14.145-17.736-23.597-24.308
	c-14.774-10.269-32.126-15.697-50.18-15.697c-48.531,0-88.014,39.483-88.014,88.014c0,2.405,0.101,4.786,0.291,7.143
	c-0.05,0.184-0.102,0.367-0.139,0.557L0.816,366.556c-0.015,0.075-0.028,0.15-0.041,0.226C0.26,369.844,0,372.982,0,376.109
	c0,30.884,25.126,56.011,56.011,56.011c19.934,0,38.523-10.729,48.488-27.958l68.109-116.058h166.784l68.084,116.015
	c9.99,17.272,28.58,28.001,48.513,28.001c30.884,0,56.011-25.126,56.011-56.011C512,372.982,511.74,369.844,511.225,366.782z
	 M248.038,135.891c0-4.409,3.586-7.996,7.996-7.996c4.409,0,7.996,3.587,7.996,7.996v16.189h-15.992v-16.189H248.038z
	 M120.018,128.087c29.866,0,56.196,17.966,67.079,45.772c1.611,4.117,6.254,6.148,10.372,4.537c4.095-1.603,6.123-6.205,4.56-10.306
	h108.028c-3.886,9.923-6.023,20.716-6.023,31.999c0,16.781,4.742,33.104,13.713,47.199c2.374,3.731,7.323,4.829,11.053,2.456
	c3.73-2.374,4.829-7.322,2.456-11.052c-7.334-11.523-11.211-24.872-11.211-38.603c0-39.703,32.3-72.003,72.003-72.003
	s72.004,32.3,72.004,72.003s-32.301,72.003-72.004,72.003c-14.673,0-28.787-4.383-40.816-12.677
	c-3.641-2.511-8.626-1.593-11.136,2.046c-2.351,3.41-1.695,8,1.39,10.63h-170.91c22.637-15.942,37.457-42.273,37.457-72.003
	c0-4.421-3.583-8.005-8.005-8.005c-4.421,0-8.005,3.584-8.005,8.005c0,39.703-32.301,72.003-72.004,72.003
	s-72.003-32.3-72.003-72.003S80.315,128.087,120.018,128.087z M90.666,396.102c-7.138,12.341-20.417,20.008-34.655,20.008
	c-22.056,0-40-17.944-40-40c0-2.206,0.18-4.415,0.535-6.569l25.425-128.801c14.707,28.124,44.17,47.365,78.046,47.365
	c2.073,0,4.129-0.077,6.167-0.219c0.589,0.138,1.202,0.219,1.834,0.219h26.025L90.666,396.102z M455.989,416.109
	c-14.237,0-27.516-7.666-34.68-20.051l-63.352-107.955h26.091c0.633,0,1.248-0.081,1.838-0.22c2.043,0.141,4.098,0.22,6.162,0.22
	c33.839,0,63.274-19.199,77.998-47.273l25.406,128.709c0.355,2.154,0.535,4.364,0.535,6.569
	C495.989,398.165,478.045,416.109,455.989,416.109z M232.027,240.094c0-4.422,3.583-8.005,8.005-8.005h32.003
	c4.422,0,8.005,3.583,8.005,8.005c0,4.421-3.583,8.005-8.005,8.005h-32.003C235.61,248.1,232.027,244.515,232.027,240.094z
	 M72.012,208.095c-4.422,0-8.005-3.584-8.005-8.005s3.583-8.005,8.005-8.005h24.003c4.422,0,8.005,3.584,8.005,8.005
	s-3.583,8.005-8.005,8.005H72.012z M136.015,200.09c0-4.421,3.584-8.005,8.005-8.005h24.002c4.421,0,8.005,3.584,8.005,8.005
	s-3.584,8.005-8.005,8.005H144.02C139.599,208.095,136.015,204.511,136.015,200.09z M112.013,248.096v-24.002
	c0-4.421,3.584-8.005,8.005-8.005c4.422,0,8.005,3.584,8.005,8.005v24.002c0,4.421-3.583,8.005-8.005,8.005
	C115.597,256.101,112.013,252.517,112.013,248.096z M112.013,176.087v-24.003c0-4.421,3.584-8.005,8.005-8.005
	c4.422,0,8.005,3.584,8.005,8.005v24.002c0,4.421-3.583,8.005-8.005,8.005C115.597,184.093,112.013,180.508,112.013,176.087z
	 M352.04,224.092c0-8.826,7.18-16.007,16.006-16.007c8.826,0,16.007,7.18,16.007,16.007c0,8.826-7.181,16.006-16.007,16.006
	C359.221,240.098,352.04,232.918,352.04,224.092z M400.045,224.092c0-8.826,7.181-16.007,16.007-16.007s16.007,7.18,16.007,16.007
	c0,8.826-7.181,16.006-16.007,16.006C407.225,240.098,400.045,232.918,400.045,224.092z M352.04,176.087
	c0-8.826,7.18-16.006,16.006-16.006c8.826,0,16.007,7.18,16.007,16.006c0,8.826-7.181,16.006-16.007,16.006
	C359.221,192.093,352.04,184.912,352.04,176.087z M400.045,176.087c0-8.826,7.181-16.006,16.007-16.006s16.007,7.18,16.007,16.006
	c0,8.826-7.181,16.006-16.007,16.006C407.225,192.093,400.045,184.912,400.045,176.087z"/>
<g>
</g>
<g>
</g>
<g>
</g>
<g>
</g>
<g>
</g>
<g>
</g>
<g>
</g>
<g>
</g>
<g>
</g>
<g>
</g>
<g>
</g>
<g>
</g>
<g>
</g>
<g>
</g>
<g>
</g>
</svg>
